<svg xmlns="http://www.w3.org/2000/svg" viewBox="0 0 500 500"><g id="freepik--background-complete--inject-68"><path d="M150.79,136.71l-87.61-.13s4.36-5.67,9.17-6.37c0,0,9.38-27.79,25-28,14.54-.17,20.34,17.13,20.34,17.13s6.75-7.75,13.18-4.19,10.06,13.71,10.06,13.71S148.17,132.81,150.79,136.71Z" style="fill:#ebebeb"></path><path d="M289.51,174l110.79.17s0-7.08-15.25-8.49c0,0-13.89-31-35.17-26.83-13.25,2.56-20.05,20.74-20.05,20.74s-10-14.33-18-11.57S299,166,299,166,290.77,170,289.51,174Z" style="fill:#ebebeb"></path><path d="M162.55,77.27l75.33.11s-7.1-6.63-10.26-6.63-12.35-22.23-24.13-21.31S185.43,66.9,185.43,66.9,171.11,62.39,162.55,77.27Z" style="fill:#ebebeb"></path><path d="M372.4,119.38l64.42.1s-3.19-4.18-6.72-4.7c0,0-6.84-20.46-18.34-20.62-10.69-.16-15,12.55-15,12.55s-4.95-5.71-9.68-3.11-7.43,10.06-7.43,10.06S374.34,116.51,372.4,119.38Z" style="fill:#ebebeb"></path><polygon points="81.53 237.99 110.76 237.99 110.76 273.49 118.28 273.49 118.28 253.39 155.45 253.39 155.45 285.21 160.37 285.21 160.37 210.53 192.68 210.53 192.68 231.03 209.24 231.03 209.24 256.53 214.25 256.53 214.25 240.49 243.62 240.49 243.62 288.36 252.21 288.36 252.21 249.44 279.07 249.44 279.07 219.89 297.33 219.89 297.33 203.06 318.46 203.06 318.46 277.71 325.56 277.71 325.56 246.56 360.36 246.56 360.36 291.16 365.18 291.16 365.18 254.76 400.47 254.76 400.47 221.97 418.47 221.97 418.47 387.06 81.53 387.06 81.53 237.99" style="fill:#ebebeb"></polygon><rect x="85.11" y="242.45" width="4.95" height="6.79" style="fill:#fff"></rect><rect x="93.68" y="242.45" width="4.95" height="6.79" style="fill:#fff"></rect><rect x="102.26" y="242.45" width="4.95" height="6.79" style="fill:#fff"></rect><rect x="85.11" y="252.66" width="4.95" height="6.79" style="fill:#fff"></rect><rect x="93.68" y="252.66" width="4.95" height="6.79" style="fill:#fff"></rect><rect x="102.26" y="252.66" width="4.95" height="6.79" style="fill:#fff"></rect><rect x="85.11" y="262.87" width="4.95" height="6.79" style="fill:#fff"></rect><rect x="93.68" y="262.87" width="4.95" height="6.79" style="fill:#fff"></rect><rect x="102.26" y="262.87" width="4.95" height="6.79" style="fill:#fff"></rect><rect x="85.11" y="273.09" width="4.95" height="6.79" style="fill:#fff"></rect><rect x="93.68" y="273.09" width="4.95" height="6.79" style="fill:#fff"></rect><rect x="102.26" y="273.09" width="4.95" height="6.79" style="fill:#fff"></rect><rect x="256.34" y="254.3" width="4.95" height="5.66" style="fill:#fff"></rect><rect x="264.91" y="254.3" width="4.95" height="5.66" style="fill:#fff"></rect><rect x="273.48" y="254.3" width="4.95" height="5.66" style="fill:#fff"></rect><rect x="256.34" y="262.82" width="4.95" height="5.66" style="fill:#fff"></rect><rect x="264.91" y="262.82" width="4.95" height="5.66" style="fill:#fff"></rect><rect x="273.48" y="262.82" width="4.95" height="5.66" style="fill:#fff"></rect><rect x="256.34" y="271.34" width="4.95" height="5.66" style="fill:#fff"></rect><rect x="264.91" y="271.34" width="4.95" height="5.66" style="fill:#fff"></rect><rect x="273.48" y="271.34" width="4.95" height="5.66" style="fill:#fff"></rect><rect x="256.34" y="279.85" width="4.95" height="5.66" style="fill:#fff"></rect><rect x="264.91" y="279.85" width="4.95" height="5.66" style="fill:#fff"></rect><rect x="273.48" y="279.85" width="4.95" height="5.66" style="fill:#fff"></rect><rect x="256.34" y="288.58" width="4.95" height="5.66" style="fill:#fff"></rect><rect x="264.91" y="288.58" width="4.95" height="5.66" style="fill:#fff"></rect><rect x="273.48" y="288.58" width="4.95" height="5.66" style="fill:#fff"></rect><rect x="256.34" y="297.32" width="4.95" height="5.66" style="fill:#fff"></rect><rect x="264.91" y="297.32" width="4.95" height="5.66" style="fill:#fff"></rect><rect x="273.48" y="297.32" width="4.95" height="5.66" style="fill:#fff"></rect><rect x="256.34" y="306.05" width="4.95" height="5.66" style="fill:#fff"></rect><rect x="264.91" y="306.05" width="4.95" height="5.66" style="fill:#fff"></rect><rect x="273.48" y="306.05" width="4.95" height="5.66" style="fill:#fff"></rect><rect x="256.34" y="314.78" width="4.95" height="5.66" style="fill:#fff"></rect><rect x="264.91" y="314.78" width="4.95" height="5.66" style="fill:#fff"></rect><rect x="273.48" y="314.78" width="4.95" height="5.66" style="fill:#fff"></rect><rect x="122.5" y="257.74" width="28.47" height="4.24" style="fill:#fff"></rect><rect x="122.5" y="265.98" width="28.47" height="4.24" style="fill:#fff"></rect><rect x="122.5" y="274.21" width="28.47" height="4.24" style="fill:#fff"></rect><rect x="122.5" y="282.45" width="28.47" height="4.24" style="fill:#fff"></rect><rect x="122.5" y="290.69" width="28.47" height="4.24" style="fill:#fff"></rect><rect x="122.5" y="298.92" width="28.47" height="4.24" style="fill:#fff"></rect><rect x="122.5" y="307.16" width="28.47" height="4.24" style="fill:#fff"></rect><rect x="122.5" y="315.39" width="28.47" height="4.24" style="fill:#fff"></rect><rect x="329.77" y="250.52" width="26.18" height="4.24" style="fill:#fff"></rect><rect x="329.77" y="258.76" width="26.18" height="4.24" style="fill:#fff"></rect><rect x="329.77" y="266.99" width="26.18" height="4.24" style="fill:#fff"></rect><rect x="329.77" y="275.23" width="26.18" height="4.24" style="fill:#fff"></rect><rect x="329.77" y="283.46" width="26.18" height="4.24" style="fill:#fff"></rect><rect x="329.77" y="291.7" width="26.18" height="4.24" style="fill:#fff"></rect><rect x="329.77" y="299.94" width="26.18" height="4.24" style="fill:#fff"></rect><rect x="329.77" y="308.17" width="26.18" height="4.24" style="fill:#fff"></rect><rect x="329.77" y="316" width="26.18" height="4.24" style="fill:#fff"></rect><rect x="329.77" y="323.82" width="26.18" height="4.24" style="fill:#fff"></rect><rect x="329.77" y="331.65" width="26.18" height="4.24" style="fill:#fff"></rect><rect x="329.77" y="339.47" width="26.18" height="4.24" style="fill:#fff"></rect><rect x="329.77" y="347.3" width="26.18" height="4.24" style="fill:#fff"></rect><rect x="370.62" y="260.47" width="27.65" height="4.24" style="fill:#fff"></rect><rect x="370.62" y="268.7" width="27.65" height="4.24" style="fill:#fff"></rect><rect x="370.62" y="276.94" width="27.65" height="4.24" style="fill:#fff"></rect><rect x="370.62" y="285.18" width="27.65" height="4.24" style="fill:#fff"></rect><rect x="370.62" y="293.41" width="27.65" height="4.24" style="fill:#fff"></rect><rect x="370.62" y="301.65" width="27.65" height="4.24" style="fill:#fff"></rect><rect x="370.62" y="309.88" width="27.65" height="4.24" style="fill:#fff"></rect><rect x="370.62" y="318.12" width="27.65" height="4.24" style="fill:#fff"></rect><rect x="370.62" y="325.49" width="27.65" height="4.24" style="fill:#fff"></rect><rect x="370.62" y="332.86" width="27.65" height="4.24" style="fill:#fff"></rect><rect x="370.62" y="340.23" width="27.65" height="4.24" style="fill:#fff"></rect><rect x="222.84" y="244.34" width="8.79" height="4.1" style="fill:#fff"></rect><rect x="222.84" y="252.29" width="8.79" height="4.1" style="fill:#fff"></rect><rect x="222.84" y="260.24" width="8.79" height="4.1" style="fill:#fff"></rect><rect x="222.84" y="268.2" width="8.79" height="4.1" style="fill:#fff"></rect><rect x="222.84" y="276.15" width="8.79" height="4.1" style="fill:#fff"></rect><rect x="222.84" y="284.1" width="8.79" height="4.1" style="fill:#fff"></rect><rect x="222.84" y="292.06" width="8.79" height="4.1" style="fill:#fff"></rect><rect x="222.84" y="300.01" width="8.79" height="4.1" style="fill:#fff"></rect><rect x="234.81" y="244.34" width="8.79" height="4.1" style="fill:#fff"></rect><rect x="234.81" y="252.29" width="8.79" height="4.1" style="fill:#fff"></rect><rect x="234.81" y="260.24" width="8.79" height="4.1" style="fill:#fff"></rect><rect x="234.81" y="268.2" width="8.79" height="4.1" style="fill:#fff"></rect><rect x="234.81" y="276.15" width="8.79" height="4.1" style="fill:#fff"></rect><rect x="234.81" y="284.1" width="8.79" height="4.1" style="fill:#fff"></rect><rect x="234.81" y="292.06" width="8.79" height="4.1" style="fill:#fff"></rect><rect x="234.81" y="300.01" width="8.79" height="4.1" style="fill:#fff"></rect><rect x="165.27" y="214.83" width="9.16" height="6.46" style="fill:#fff"></rect><rect x="178.93" y="214.83" width="9.16" height="6.46" style="fill:#fff"></rect><rect x="165.27" y="224.33" width="9.16" height="6.46" style="fill:#fff"></rect><rect x="178.93" y="224.33" width="9.16" height="6.46" style="fill:#fff"></rect><rect x="165.27" y="233.82" width="9.16" height="6.46" style="fill:#fff"></rect><rect x="178.93" y="233.82" width="9.16" height="6.46" style="fill:#fff"></rect><rect x="165.27" y="243.32" width="9.16" height="6.46" style="fill:#fff"></rect><rect x="178.93" y="243.32" width="9.16" height="6.46" style="fill:#fff"></rect><rect x="165.27" y="252.81" width="9.16" height="6.46" style="fill:#fff"></rect><rect x="178.93" y="252.81" width="9.16" height="6.46" style="fill:#fff"></rect><rect x="165.27" y="262.31" width="9.16" height="6.46" style="fill:#fff"></rect><rect x="178.93" y="262.31" width="9.16" height="6.46" style="fill:#fff"></rect><rect x="165.27" y="271.81" width="9.16" height="6.46" style="fill:#fff"></rect><rect x="178.93" y="271.81" width="9.16" height="6.46" style="fill:#fff"></rect><rect x="165.27" y="281.3" width="9.16" height="6.46" style="fill:#fff"></rect><rect x="178.93" y="281.3" width="9.16" height="6.46" style="fill:#fff"></rect><rect x="195.85" y="233.82" width="9.16" height="6.46" style="fill:#fff"></rect><rect x="195.85" y="243.32" width="9.16" height="6.46" style="fill:#fff"></rect><rect x="195.85" y="252.81" width="9.16" height="6.46" style="fill:#fff"></rect><rect x="195.85" y="262.31" width="9.16" height="6.46" style="fill:#fff"></rect><rect x="195.85" y="271.81" width="9.16" height="6.46" style="fill:#fff"></rect><rect x="195.85" y="281.3" width="9.16" height="6.46" style="fill:#fff"></rect><rect x="165.27" y="290.69" width="9.16" height="6.46" style="fill:#fff"></rect><rect x="178.93" y="290.69" width="9.16" height="6.46" style="fill:#fff"></rect><rect x="195.85" y="290.69" width="9.16" height="6.46" style="fill:#fff"></rect><rect x="165.27" y="300.07" width="9.16" height="6.46" style="fill:#fff"></rect><rect x="178.93" y="300.07" width="9.16" height="6.46" style="fill:#fff"></rect><rect x="195.85" y="300.07" width="9.16" height="6.46" style="fill:#fff"></rect><rect x="165.27" y="309.45" width="9.16" height="6.46" style="fill:#fff"></rect><rect x="178.93" y="309.45" width="9.16" height="6.46" style="fill:#fff"></rect><rect x="195.85" y="309.45" width="9.16" height="6.46" style="fill:#fff"></rect><rect x="165.27" y="318.83" width="9.16" height="6.46" style="fill:#fff"></rect><rect x="178.93" y="318.83" width="9.16" height="6.46" style="fill:#fff"></rect><rect x="195.85" y="318.83" width="9.16" height="6.46" style="fill:#fff"></rect><rect x="165.27" y="328.22" width="9.16" height="6.46" style="fill:#fff"></rect><rect x="178.93" y="328.22" width="9.16" height="6.46" style="fill:#fff"></rect><rect x="195.85" y="328.22" width="9.16" height="6.46" style="fill:#fff"></rect><rect x="282.8" y="224.06" width="4.95" height="5.66" style="fill:#fff"></rect><rect x="291.37" y="224.06" width="4.95" height="5.66" style="fill:#fff"></rect><rect x="282.8" y="232.58" width="4.95" height="5.66" style="fill:#fff"></rect><rect x="291.37" y="232.58" width="4.95" height="5.66" style="fill:#fff"></rect><rect x="282.8" y="241.1" width="4.95" height="5.66" style="fill:#fff"></rect><rect x="291.37" y="241.1" width="4.95" height="5.66" style="fill:#fff"></rect><rect x="282.8" y="249.61" width="4.95" height="5.66" style="fill:#fff"></rect><rect x="291.37" y="249.61" width="4.95" height="5.66" style="fill:#fff"></rect><rect x="282.8" y="258.35" width="4.95" height="5.66" style="fill:#fff"></rect><rect x="291.37" y="258.35" width="4.95" height="5.66" style="fill:#fff"></rect><rect x="282.8" y="267.08" width="4.95" height="5.66" style="fill:#fff"></rect><rect x="291.37" y="267.08" width="4.95" height="5.66" style="fill:#fff"></rect><rect x="282.8" y="275.81" width="4.95" height="5.66" style="fill:#fff"></rect><rect x="291.37" y="275.81" width="4.95" height="5.66" style="fill:#fff"></rect><rect x="282.8" y="284.54" width="4.95" height="5.66" style="fill:#fff"></rect><rect x="291.37" y="284.54" width="4.95" height="5.66" style="fill:#fff"></rect><rect x="282.8" y="293.36" width="4.95" height="5.66" style="fill:#fff"></rect><rect x="291.37" y="293.36" width="4.95" height="5.66" style="fill:#fff"></rect><rect x="282.8" y="302.18" width="4.95" height="5.66" style="fill:#fff"></rect><rect x="291.37" y="302.18" width="4.95" height="5.66" style="fill:#fff"></rect><rect x="282.8" y="311.01" width="4.95" height="5.66" style="fill:#fff"></rect><rect x="291.37" y="311.01" width="4.95" height="5.66" style="fill:#fff"></rect><rect x="282.8" y="319.83" width="4.95" height="5.66" style="fill:#fff"></rect><rect x="291.37" y="319.83" width="4.95" height="5.66" style="fill:#fff"></rect><rect x="403.57" y="224.98" width="4.95" height="6.67" style="fill:#fff"></rect><rect x="412.14" y="224.98" width="4.95" height="6.67" style="fill:#fff"></rect><rect x="403.57" y="235.01" width="4.95" height="6.67" style="fill:#fff"></rect><rect x="412.14" y="235.01" width="4.95" height="6.67" style="fill:#fff"></rect><rect x="403.57" y="245.05" width="4.95" height="6.67" style="fill:#fff"></rect><rect x="412.14" y="245.05" width="4.95" height="6.67" style="fill:#fff"></rect><rect x="403.57" y="255.09" width="4.95" height="6.67" style="fill:#fff"></rect><rect x="412.14" y="255.09" width="4.95" height="6.67" style="fill:#fff"></rect><rect x="403.57" y="265.37" width="4.95" height="6.67" style="fill:#fff"></rect><rect x="412.14" y="265.37" width="4.95" height="6.67" style="fill:#fff"></rect><rect x="403.57" y="275.66" width="4.95" height="6.67" style="fill:#fff"></rect><rect x="412.14" y="275.66" width="4.95" height="6.67" style="fill:#fff"></rect><rect x="403.57" y="285.94" width="4.95" height="6.67" style="fill:#fff"></rect><rect x="412.14" y="285.94" width="4.95" height="6.67" style="fill:#fff"></rect><rect x="403.57" y="296.23" width="4.95" height="6.67" style="fill:#fff"></rect><rect x="412.14" y="296.23" width="4.95" height="6.67" style="fill:#fff"></rect><rect x="403.57" y="306.62" width="4.95" height="6.67" style="fill:#fff"></rect><rect x="412.14" y="306.62" width="4.95" height="6.67" style="fill:#fff"></rect><rect x="403.57" y="317.02" width="4.95" height="6.67" style="fill:#fff"></rect><rect x="412.14" y="317.02" width="4.95" height="6.67" style="fill:#fff"></rect><rect x="403.57" y="327.41" width="4.95" height="6.67" style="fill:#fff"></rect><rect x="412.14" y="327.41" width="4.95" height="6.67" style="fill:#fff"></rect><rect x="403.57" y="337.81" width="4.95" height="6.67" style="fill:#fff"></rect><rect x="412.14" y="337.81" width="4.95" height="6.67" style="fill:#fff"></rect><rect x="301.13" y="224.06" width="4.95" height="5.66" style="fill:#fff"></rect><rect x="309.7" y="224.06" width="4.95" height="5.66" style="fill:#fff"></rect><rect x="301.13" y="215.32" width="4.95" height="5.66" style="fill:#fff"></rect><rect x="309.7" y="215.32" width="4.95" height="5.66" style="fill:#fff"></rect><rect x="301.13" y="206.59" width="4.95" height="5.66" style="fill:#fff"></rect><rect x="309.7" y="206.59" width="4.95" height="5.66" style="fill:#fff"></rect><rect x="301.13" y="232.58" width="4.95" height="5.66" style="fill:#fff"></rect><rect x="309.7" y="232.58" width="4.95" height="5.66" style="fill:#fff"></rect><rect x="301.13" y="241.1" width="4.95" height="5.66" style="fill:#fff"></rect><rect x="309.7" y="241.1" width="4.95" height="5.66" style="fill:#fff"></rect><rect x="301.13" y="249.61" width="4.95" height="5.66" style="fill:#fff"></rect><rect x="309.7" y="249.61" width="4.95" height="5.66" style="fill:#fff"></rect><rect x="301.13" y="258.35" width="4.95" height="5.66" style="fill:#fff"></rect><rect x="309.7" y="258.35" width="4.95" height="5.66" style="fill:#fff"></rect><rect x="301.13" y="267.08" width="4.95" height="5.66" style="fill:#fff"></rect><rect x="309.7" y="267.08" width="4.95" height="5.66" style="fill:#fff"></rect><rect x="301.13" y="275.81" width="4.95" height="5.66" style="fill:#fff"></rect><rect x="309.7" y="275.81" width="4.95" height="5.66" style="fill:#fff"></rect><rect x="301.13" y="284.54" width="4.95" height="5.66" style="fill:#fff"></rect><rect x="309.7" y="284.54" width="4.95" height="5.66" style="fill:#fff"></rect><rect x="301.13" y="293.36" width="4.95" height="5.66" style="fill:#fff"></rect><rect x="309.7" y="293.36" width="4.95" height="5.66" style="fill:#fff"></rect><rect x="301.13" y="302.18" width="4.95" height="5.66" style="fill:#fff"></rect><rect x="309.7" y="302.18" width="4.95" height="5.66" style="fill:#fff"></rect><rect x="301.13" y="311.01" width="4.95" height="5.66" style="fill:#fff"></rect><rect x="309.7" y="311.01" width="4.95" height="5.66" style="fill:#fff"></rect><rect x="301.13" y="319.83" width="4.95" height="5.66" style="fill:#fff"></rect><rect x="309.7" y="319.83" width="4.95" height="5.66" style="fill:#fff"></rect></g><g id="freepik--Shadows--inject-68"><ellipse cx="124.15" cy="437.21" rx="17.73" ry="101.91" transform="translate(-313.56 559.58) rotate(-89.77)" style="fill:#ebebeb"></ellipse><ellipse cx="375.85" cy="437.21" rx="17.73" ry="101.91" transform="matrix(0, -1, 1, 0, -62.88, 811.28)" style="fill:#ebebeb"></ellipse></g><g id="freepik--Floor--inject-68"><polygon points="51.94 387.18 101.46 386.93 150.97 386.84 250 386.68 349.03 386.84 398.54 386.93 448.06 387.18 398.54 387.42 349.03 387.51 250 387.67 150.97 387.51 101.46 387.42 51.94 387.18" style="fill:#263238"></polygon></g><g id="freepik--Plants--inject-68"><path d="M185.6,387.67H98.27s.2-13,8.79-16.44a11.7,11.7,0,0,1,13.69,3.28s3.5-23.9,19.5-23.9,23.65,20.62,23.65,20.62,3.58-6.24,12.46-5.08S185.6,387.67,185.6,387.67Z" style="fill:#37474f"></path><path d="M343,387.67s-2.68-12.49-8-14.41-8.6,3.68-8.6,3.68-1.26-11.94-8.84-15.51-13.27,3.74-13.27,3.74S298.49,350,288.09,350s-15.63,22.16-15.63,22.16-6.13-6.61-12.42-2.88-6.29,18.36-6.29,18.36Z" style="fill:#37474f"></path><path d="M113.92,387.67H33.4s2.65-11.35,8-12.15S49.22,380,49.22,380,49,364.14,59,361.45s18.33,11.29,18.33,11.29,6.25-8,14.77-7.47S102.74,379,102.74,379,110.5,374.39,113.92,387.67Z" style="fill:#455a64"></path><path d="M383.09,387.67H333.61s.12-7.36,5-9.32a6.64,6.64,0,0,1,7.76,1.86s2-13.54,11-13.54,13.4,11.68,13.4,11.68,2-3.53,7.07-2.87S383.09,387.67,383.09,387.67Z" style="fill:#455a64"></path></g><g id="freepik--fire-hydrant--inject-68"><rect x="169.25" y="315.91" width="38.67" height="71.83" style="fill:#64CE82"></rect><rect x="166.68" y="313.08" width="43.81" height="2.83" style="fill:#64CE82"></rect><rect x="166.68" y="308.43" width="43.81" height="2.83" style="fill:#64CE82"></rect><rect x="169.25" y="311.26" width="38.67" height="1.82" style="fill:#64CE82"></rect><rect x="169.25" y="311.26" width="38.67" height="1.82" style="opacity:0.1"></rect><path d="M207.89,308.43H169.28a19.33,19.33,0,0,1,38.61,0Z" style="fill:#64CE82"></path><path d="M207.89,308.43H169.28a17.43,17.43,0,0,1,.28-2.41L207,303.58A19.43,19.43,0,0,1,207.89,308.43Z" style="opacity:0.1"></path><polygon points="207.92 315.91 207.92 320.16 169.25 321.97 169.25 315.91 207.92 315.91" style="opacity:0.1"></polygon><rect x="173.56" y="325.49" width="3.33" height="57.84" style="opacity:0.1"></rect><rect x="180.24" y="325.49" width="3.33" height="57.84" style="opacity:0.1"></rect><rect x="186.92" y="325.49" width="3.33" height="57.84" style="opacity:0.1"></rect><rect x="193.6" y="325.49" width="3.33" height="57.84" style="opacity:0.1"></rect><rect x="200.28" y="325.49" width="3.33" height="57.84" style="opacity:0.1"></rect><rect x="162.42" y="329.56" width="6.83" height="17.74" style="fill:#64CE82"></rect><rect x="159.81" y="331.07" width="2.6" height="15.19" style="fill:#64CE82"></rect><rect x="159.81" y="331.07" width="2.6" height="15.19" style="opacity:0.1"></rect><path d="M159.81,334.2v8.46a4.24,4.24,0,0,1,0-8.46Z" style="fill:#64CE82"></path><polygon points="169.25 329.56 169.25 347.3 167.66 347.3 164.86 329.56 169.25 329.56" style="opacity:0.1"></polygon><rect x="207.92" y="329.56" width="6.83" height="17.74" transform="translate(422.68 676.86) rotate(180)" style="fill:#64CE82"></rect><rect x="214.75" y="331.07" width="2.6" height="15.19" transform="translate(432.11 677.32) rotate(180)" style="fill:#64CE82"></rect><rect x="214.75" y="331.07" width="2.6" height="15.19" transform="translate(432.11 677.32) rotate(180)" style="opacity:0.1"></rect><path d="M217.36,334.2v8.46a4.24,4.24,0,0,0,0-8.46Z" style="fill:#64CE82"></path><polygon points="207.92 329.56 207.92 347.3 209.51 347.3 212.31 329.56 207.92 329.56" style="opacity:0.1"></polygon><circle cx="188.59" cy="338.43" r="13.36" transform="translate(-185.7 438.47) rotate(-75.84)" style="fill:#64CE82"></circle><circle cx="188.58" cy="338.43" r="9.16" style="opacity:0.1"></circle><rect x="187.28" y="282.79" width="2.6" height="15.19" transform="translate(478.97 101.8) rotate(90)" style="fill:#64CE82"></rect><rect x="187.28" y="282.79" width="2.6" height="15.19" transform="translate(478.97 101.8) rotate(90)" style="opacity:0.1"></rect><path d="M193.05,289.08h-8.46a4.24,4.24,0,0,1,8.46,0Z" style="fill:#64CE82"></path></g><g id="freepik--character-2--inject-68"><path d="M331.42,432c2.37.44,67.08-8.89,69.31-10.81.86-.72,0-10.23-1.25-21.69l-.05-.36c-.26-2.36-8.54-41.48-8.54-41.48l-43.3,6.11,10,40.93.12.7s-23.17,14.65-25.41,17S329.05,431.58,331.42,432Z" style="fill: rgb(211, 118, 106);"></path><path d="M400.73,421.2c-2.23,1.92-66.94,11.25-69.31,10.81s-1.31-7.22.91-9.58c1.26-1.33,9.14-6.55,15.8-10.86-4.46,3-13.26,12.7,15.76,4.41,19.63-5.61,30.81-9.75,36.09-11.89C401,413.41,401.47,420.58,400.73,421.2Z" style="fill:#263238"></path><path d="M351.38,397.46,400,390.75s-12.12-83-11.75-84.93c.47-2.46,29-118.89,29-118.89h-39.9s-32.82,108-34.08,118.42C341.24,322.19,351.38,397.46,351.38,397.46Z" style="fill:#37474f"></path><path d="M353.67,387.54c8.33-1.7,38.6-5.35,41.93-5.22a.08.08,0,0,1,0,.15c-3.19.95-29.24,4.45-41.91,5.28A.11.11,0,0,1,353.67,387.54Z" style="fill:#263238"></path><path d="M408.2,195.87c-1,2.86-1.8,5.76-2.68,8.64s-1.66,5.79-2.52,8.68c-1.7,5.72-3.32,11.47-4.95,17.21-3.29,11.59-6.42,23.23-9.49,34.88q-2.28,8.66-4.5,17.33c-1.49,5.79-3.06,11.58-4.39,17.41a30.29,30.29,0,0,0-.87,8.37A83,83,0,0,0,380,317q1.44,8.92,2.89,17.84,2.91,18,6,36c.25,1.47.54,2.93.82,4.39,0,.08.16.06.15,0-1.59-11.93-3.6-23.81-5.49-35.69q-1.39-8.81-2.83-17.6c-.5-3.07-1-6.13-1.48-9.21a30.69,30.69,0,0,1-.32-8.82,75.94,75.94,0,0,1,1.88-8.53c.72-2.86,1.44-5.73,2.17-8.59q2.22-8.67,4.48-17.33,4.56-17.4,9.33-34.75t9.59-34.48c.4-1.43.79-2.85,1.15-4.28C408.35,195.82,408.23,195.79,408.2,195.87Z" style="fill:#263238"></path><path d="M373.17,442.84c2.3.73,67.66-.47,70.12-2.1.95-.6,1.33-10.14,1.46-21.67v-.36c0-2.38-1.31-42.23-1.31-42.23l-42.73.66L402.57,419l0,.72s-24.82,11.65-27.33,13.72S370.87,442.12,373.17,442.84Z" style="fill: rgb(211, 118, 106);"></path><path d="M444.66,424.8c-.19,8.82-.58,15.44-1.37,15.94-2.46,1.63-67.82,2.83-70.12,2.1s-.4-7.32,2.1-9.39c1.53-1.26,11.34-6.08,18.78-9.66-5,2.68-12.94,9.9,15.6,6.48C427.26,428.16,438.4,426.13,444.66,424.8Z" style="fill:#263238"></path><path d="M378.65,186.93s.92,19.09,5.29,34.21c.35,1.25.73,2.48,1.14,3.66,0,0,1.73,0,8.68,4.24l5.79,182.88,47.07-.5s-7.51-96.92-7.45-103.13c.09-10-5.39-77.56-4.82-79.27,5.85-17.45-3.82-42.09-3.82-42.09Z" style="fill:#37474f"></path><path d="M401.17,403.21c13.26-.8,38.95-1,42.24-.49.07,0,.08.13,0,.14-3.28.59-34.48,1.19-42.24.56A.11.11,0,1,1,401.17,403.21Z" style="fill:#263238"></path><path d="M398.23,326.76q-.84-31.44-2.14-62.87c-.48-11.83-1-23.65-1.67-35.46a.32.32,0,0,0-.64,0c.51,21.08,1.34,42.14,2,63.21s1.42,41.92,2.14,62.88c.4,11.82.76,23.65,1.25,35.47a.14.14,0,0,0,.27,0C399.34,368.91,398.8,347.83,398.23,326.76Z" style="fill:#263238"></path><path d="M435,356c-1-13.75-2-27.49-3-41.23s-2.05-27.5-3.07-41.24c-.5-6.88-1-13.75-1.54-20.62-.27-3.44-.53-6.87-.8-10.31a89.52,89.52,0,0,1-.62-10.21c.13-3.73,1.7-7,2.57-10.6a41.85,41.85,0,0,0,1.07-10.35c-.1-7.18-1.7-14.25-3.19-21.24-.09-.38-.69-.21-.6.18A102.64,102.64,0,0,1,429,210a42.72,42.72,0,0,1-.68,9.84c-.62,3.11-1.92,6-2.65,9.07s-.34,6.45-.08,9.66c.26,3.44.49,6.88.74,10.31.48,6.74,1,13.47,1.49,20.21,2,27.35,4,54.71,6.17,82.06,1.2,15.39,2.22,30.81,3.72,46.18,0,.11.18.11.18,0C437.15,383.53,436,369.78,435,356Z" style="fill:#263238"></path><path d="M425.39,207.7c-.79-.31-1.68-.39-2.5-.63a20.36,20.36,0,0,1-2.52-.89,19.38,19.38,0,0,1-4.37-2.63,10.15,10.15,0,0,1-2.84-4.12c-.35-.85-.69-1.71-1-2.56-.17-.42-.34-.84-.52-1.26-.07-.17-.52-1.06-.6-1.34a.09.09,0,0,0,.12,0l.05-.05s0-.07,0-.1-.07-.11-.18-.14a.12.12,0,0,0-.12.06c-.16.28,0,.55.07.85.15.56.29,1.12.44,1.68.26,1,.51,1.95.81,2.92a10,10,0,0,0,2.84,4.75,15.55,15.55,0,0,0,4.87,2.79,17.08,17.08,0,0,0,2.8.77,7.62,7.62,0,0,0,2.69.16C425.55,207.94,425.5,207.74,425.39,207.7Z" style="fill:#263238"></path><path d="M387.53,218.22c-.11-1.65-.23-3.29-.38-4.94-.33-3.75-.72-7.51-1.38-11.22,0-.29-.46-.18-.43.1.25,2.91.58,5.82.86,8.73s.62,5.81.67,8.71c0,.87,0,2.35-1.11,2.59-1.45.33-2.13-1.56-2.47-2.6a47.93,47.93,0,0,1-1.81-7.93c-.48-3.06-.73-6.16-1-9.23,0-.12-.19-.1-.19,0,0,6.11.06,12.5,2.35,18.27a3.37,3.37,0,0,0,2.52,2.41h.06s0,.06,0,.1.07.34.1.51a3,3,0,0,0,.09.43c.06.3.1.6.17.89A.23.23,0,0,0,386,225a.18.18,0,0,0,.12-.18,4.73,4.73,0,0,0-.39-1.73,2.16,2.16,0,0,0,1.58-1.33A7.6,7.6,0,0,0,387.53,218.22Z" style="fill:#263238"></path><path d="M383.13,223.66a88.75,88.75,0,0,1,13.45,7.05.16.16,0,0,1-.14.28c-4.54-2.21-9.18-4.33-13.59-6.78A.31.31,0,0,1,383.13,223.66Z" style="fill:#263238"></path><path d="M351.58,162c5.06,10,16.35,15.83,26.69,18.73,10.54,3,22.78,4.51,33.51,1.59a26.5,26.5,0,0,0,12.6-7.21c3.59-3.85,4.89-8.43,2.91-13.18-1.59-3.83-6.11-7.28-5.47-10.34s3.63-5,4.94-7.75c2.24-4.78.33-9.12-2.47-13.12-6.61-9.5-2.21-19.24-5.25-29.94-1.73-6.09-7.75-17.91-23.33-16.4-5.92.58-10.8,4.87-14.18,9.67-4,5.65-3.79,14.21-8.31,19.49-3.85,4.49-8.1,4.44-11.88,9.22-1.64,2.07-2.76,4.65-1.47,10.63.47,2.17.77,5.38-.54,7.56-1.82,3-6,3.7-7.93,6.83C348.68,152.08,349.35,157.57,351.58,162Z" style="fill:#263238"></path><path d="M420.85,175.7c5.19.23,8.81-6.29,6.38-10.52-1.53-2.68-4.34-4.37-5.88-7-2.54-4.4,1.12-7.12,3.68-10.38,5.54-7.06,1.36-13.49-3.23-19.54-3.48-4.59-3.45-9-2.59-14.51,0-.08.16-.06.15,0-.44,4.09-.72,8.15,1.4,11.86,1.72,3,4.36,5.4,6,8.5,2.73,5.21,2.16,10.11-1.48,14.64-1,1.3-2.8,2.65-3.43,4.18-1.5,3.6.89,6.12,3.16,8.52,1.73,1.84,3.66,3.88,3.9,6.54.37,4-4.07,8.46-8,8.05C420.66,176,420.64,175.69,420.85,175.7Z" style="fill:#263238"></path><path d="M417.32,179c3.47-1.23,7.17-2.24,9.66-5.15,3.69-4.3,1.12-8.66-1.29-12.76-1-1.76-1.84-3.47-1.34-5.54.75-3.1,3.55-5.25,4.57-8.27,2.43-7.2-3.87-13.18-6.38-19.35s-2.44-13-2.46-19.72a.11.11,0,0,1,.22,0c.08,8.54.88,16.72,5.3,24.21,3.09,5.23,6.35,10.87,3.18,16.85-.78,1.47-2,2.7-2.73,4.17-1.48,2.93-1.07,5.11.5,7.75s3.32,5.19,3.06,8.29c-.51,6-7.12,8.72-12.14,10A.27.27,0,0,1,417.32,179Z" style="fill:#263238"></path><path d="M350.43,145.65c3.21-3.07,7.53-4.06,7.5-9.37,0-3.66-1.35-6.85.09-10.44,1.19-3,3.62-5,6.34-6.54,3.45-2,7.11-3.44,9.91-6.38,3.06-3.2,5-7.3,6.86-11.23,0-.08.18,0,.15.06-2.26,5.42-4.79,10.94-9.86,14.32-2.64,1.76-5.66,2.9-8.28,4.69-4.73,3.23-5.55,7.63-4.83,13,.33,2.45.57,4.89-.93,7s-4,3.14-5.92,4.8c-8.18,7-.17,19.55,7.86,22.7.36.14.2.72-.17.58-6-2.16-11.52-9.14-11.7-15.6A10.09,10.09,0,0,1,350.43,145.65Z" style="fill:#263238"></path><path d="M349.85,150.16c.78-3.72,3.48-5.33,5.83-7.91,3.7-4.05,1.66-9.15,2.25-14.07a12.22,12.22,0,0,1,4.87-8.1c3.43-2.78,7.46-4.46,10.48-7.83a24.73,24.73,0,0,0,5.92-12.88c0-.09.14-.05.13,0A23.41,23.41,0,0,1,370,115.9c-3.38,2.47-7.62,4.2-10,8-2.48,4-1.08,8.31-1.33,12.69a9.71,9.71,0,0,1-3.18,6.86c-1.43,1.38-3.09,2.57-4.09,4.38a11.76,11.76,0,0,0-.76,8.14c1.84,8.48,9.08,15,16.63,17.73.26.1.16.55-.11.45a27.63,27.63,0,0,1-15.78-14.19A15.8,15.8,0,0,1,349.85,150.16Z" style="fill:#263238"></path><path d="M395.59,137c-4.94,6.27-36.79,26.73-59.54,26.74-7.72,0-29.73-32.61-33.91-45.09-3-9,16.05-13.82,21.47-12.6,6.77,1.51,18.17,29.32,23,29.71,7.71.63,27.65-4.57,43.83-7.08C398.74,127.42,399.39,132.19,395.59,137Z" style="fill: rgb(211, 118, 106);"></path><path d="M302.69,120.07c-1.29-2.69-6.09-15.52-6.63-19.39s-1.27-15.11,1.65-15.82,3.4,2.56,3.4,2.56.44-4.8,3.44-5.25,3.59,4.67,3.59,4.67S309,82,312,81.72s2.75,5,2.75,5,.53-4.51,3.11-3.65c3.1,1,1.18,9.23,2.09,13.46.21,1,5.59,19.15,5.59,19.15Z" style="fill: rgb(211, 118, 106);"></path><path d="M314.74,86.28c-1.39,6-1,8.92,1,14.68a.09.09,0,0,1-.17.08c-2.48-5.46-3.54-9-1.15-14.85C314.57,85.91,314.81,86,314.74,86.28Z" style="fill:#263238"></path><path d="M308.26,86.37c-.91,6.39-.47,9.52,1.19,15.71,0,.09-.12.14-.15,0-2.14-5.93-3.12-9.49-1.37-15.76C308,86.09,308.3,86.07,308.26,86.37Z" style="fill:#263238"></path><path d="M301.2,87.73c-.43,6.26-.09,9.71,2.29,15.51a.12.12,0,0,1-.21.1c-3-5.68-3.45-10-2.27-15.6C301.09,87.36,301.23,87.34,301.2,87.73Z" style="fill:#263238"></path><path d="M329.68,118.46s.74-7.73.31-11.19-6.77-15.8-9.51-14.59c-3.54,1.58-1.28,9.42.33,13.12,0,0-8.19,3.63-7.79,9.61S329.68,118.46,329.68,118.46Z" style="fill: rgb(211, 118, 106);"></path><path d="M319.65,93.44c-2.19,3.76.23,8.47,1.53,12.18a.36.36,0,0,1-.33.49c-3.33,1.75-7.52,5.19-8,9.13,0,.12-.18.12-.18,0-.05-4.3,3.79-8,7.56-9.7-1.38-3.78-3.61-8.62-.6-12.13C319.63,93.39,319.67,93.41,319.65,93.44Z" style="fill:#263238"></path><path d="M338.82,123.31,311.6,140.53s14.1,22,22.63,24,41.83-8.82,56.26-21.49,9.05-17.27-6.24-14-35.22,6.51-37.59,5.39S338.82,123.31,338.82,123.31Z" style="fill:#64CE82"></path><path d="M390.49,143.08c-8.27,7.26-22.74,13.92-35.19,17.9L397,128.85C400.73,130.59,399.32,135.32,390.49,143.08Z" style="fill:#242f33;opacity:0.1"></path><path d="M340.21,129.43a52.32,52.32,0,0,0-5.91,3.37q-2.83,1.74-5.65,3.5t-5.46,3.54c-.92.61-1.84,1.24-2.75,1.86l-1.47,1c-.55.37-1.06.84-1.64,1.16a.08.08,0,1,0,.08.13,18.83,18.83,0,0,1,1.76-1l1.43-.83c1-.58,2-1.15,3-1.74,1.9-1.13,3.8-2.29,5.66-3.48s3.67-2.33,5.48-3.52a51.45,51.45,0,0,0,5.59-3.87A.09.09,0,0,0,340.21,129.43Z" style="fill:#263238"></path><path d="M373,178.6l-3.87,33.59s54.54-.82,68-2.18c0,0-12.91-62.2-27.93-77.56-7.51-7.68-16-6.84-21.32-1.15-1.33,1.44-17.12,23.66-18.61,32C368.05,170.68,373,178.6,373,178.6Z" style="fill:#64CE82"></path><path d="M400.37,131.51c-.44,1-6.76,6.89-11.54,5.76-1.55-.38.11-9,.11-9l0-.66-.3-9.24,11.68-4.72,1.68-.6s-.09,2.54-.22,5.69c0,.15,0,.3,0,.45s0,.35,0,.52l-.06,1.43c0,.36,0,.72-.07,1.1s0,.76-.08,1.14A59.07,59.07,0,0,1,400.37,131.51Z" style="fill: rgb(211, 118, 106);"></path><path d="M401.75,118.79a18.56,18.56,0,0,1-12.84,8.87l-.3-9.24,11.68-4.72,1.68-.6S401.88,115.64,401.75,118.79Z" style="fill:#263238"></path><path d="M377.7,104.19c-2.23,16.09,7.16,19.23,10.63,19.71,3.14.43,13.92,1.5,17.79-14.27s-2.9-21.89-10.05-23.25S379.92,88.11,377.7,104.19Z" style="fill: rgb(211, 118, 106);"></path><path d="M381.27,100.86a10.36,10.36,0,0,0,1.12-.08,1.79,1.79,0,0,0,1.13-.3.57.57,0,0,0,.09-.7,1.44,1.44,0,0,0-1.35-.52,2.1,2.1,0,0,0-1.41.55A.62.62,0,0,0,381.27,100.86Z" style="fill:#263238"></path><path d="M391.86,102.44c-.37-.1-.7-.25-1.06-.38a1.83,1.83,0,0,1-1-.59.58.58,0,0,1,.1-.7,1.43,1.43,0,0,1,1.44-.14,2.08,2.08,0,0,1,1.21.92A.62.62,0,0,1,391.86,102.44Z" style="fill:#263238"></path><path d="M389.15,106.2s.08.06.07.11c-.21,1.08-.27,2.36.66,2.89,0,0,0,.07,0,.06C388.68,108.89,388.78,107.19,389.15,106.2Z" style="fill:#263238"></path><path d="M390.31,105.22c1.78.15,1.34,3.69-.3,3.55S388.82,105.09,390.31,105.22Z" style="fill:#263238"></path><path d="M391,105.49c.28.24.54.63.91.71s.8-.23,1.12-.55c0,0,.06,0,.06,0-.08.68-.42,1.35-1.16,1.36s-1.08-.65-1.17-1.35C390.74,105.57,390.87,105.39,391,105.49Z" style="fill:#263238"></path><path d="M382.84,105.16s-.1,0-.1.09c-.09,1.1-.38,2.35-1.42,2.6a0,0,0,0,0,0,.06C382.56,107.88,382.93,106.22,382.84,105.16Z" style="fill:#263238"></path><path d="M382,103.9c-1.75-.34-2.3,3.19-.68,3.5S383.46,104.18,382,103.9Z" style="fill:#263238"></path><path d="M381.22,104c-.31.14-.64.44-1,.41s-.61-.46-.8-.86c0,0-.05,0-.06,0-.12.67,0,1.4.62,1.63s1.09-.3,1.36-.94C381.41,104.17,381.34,104,381.22,104Z" style="fill:#263238"></path><path d="M387.71,115c-.29.24-.58.57-1,.58a3,3,0,0,1-1.16-.37s-.08,0-.06,0a1.52,1.52,0,0,0,1.36.71,1.2,1.2,0,0,0,.94-.91A.06.06,0,0,0,387.71,115Z" style="fill:#263238"></path><path d="M383.66,110.37s-.45,1.61-.55,2.38c0,.07.17.13.43.18h0a3.72,3.72,0,0,0,3.75-.89.08.08,0,0,0-.1-.13,5.53,5.53,0,0,1-3.48.51c0-.22.86-2.72.73-2.75a6.83,6.83,0,0,0-1.8.16c.83-3.37,2.2-6.58,3-10,0-.12-.15-.18-.2-.08a56.49,56.49,0,0,0-3.66,10.59C381.67,110.83,383.33,110.46,383.66,110.37Z" style="fill:#263238"></path><path d="M404.71,109.69c-4-.29-4.66-12.56-4.73-14.06,0,1-.06,6-.45,6.17a4.16,4.16,0,0,1-1.24-.28h0a11.21,11.21,0,0,0-.08-1.81,8.06,8.06,0,0,0-.32,1.68l-.72-.23a14.56,14.56,0,0,0-.24-3.84c-.1-.48-.3,1.65-.83,3.51a48.16,48.16,0,0,0-10.34-2.24c-1-.07-1.85-.09-2.61-.09a25.41,25.41,0,0,0,.16-2.72,14.31,14.31,0,0,0-.72,2.74c-.41,0-.79,0-1.14,0,0-2.11,1.11-5.42.75-4.92A14.89,14.89,0,0,0,380,98.73c-1.44.23-1.85.49-1.88.12a17.58,17.58,0,0,1,5.74-10.65c5.15-4.49,15.11-5.28,20.43,2.14,0,0,4.49,3.18,5,8S407,109.86,404.71,109.69Z" style="fill:#263238"></path><path d="M400.61,109.36s3.56-5.06,5.86-3.79-.39,8.61-3.09,9.6a2.75,2.75,0,0,1-3.68-1.48Z" style="fill: rgb(211, 118, 106);"></path><path d="M405.65,107.65a0,0,0,0,1,0,.07c-1.89.77-2.9,2.52-3.6,4.34a1.52,1.52,0,0,1,2.27-.41c.05,0,0,.11-.05.1a1.68,1.68,0,0,0-1.86.58,8.48,8.48,0,0,0-.9,1.51c-.08.16-.39.07-.32-.12v0C401.17,111.26,403.05,107.89,405.65,107.65Z" style="fill:#263238"></path><path d="M396.17,120.66c2.74-.92,5.52-2,7.46-4.34a14,14,0,0,0,3.1-5.72,10.88,10.88,0,0,1-1.24,2.36,7.42,7.42,0,0,1-1.93,1.94s0,0,0,0a14.67,14.67,0,0,1-7.45,5.29C395.83,120.29,395.9,120.75,396.17,120.66Z" style="fill:#ebebeb"></path><path d="M399.9,110.83c.52-.54,2.27-3.41,3.68-4.41h0a7.9,7.9,0,0,1,.67-.51,3.23,3.23,0,0,1,1.27-.53,2.05,2.05,0,0,0-1.14-.21c-2,.19-3.78,4.07-4.66,5.52C399.67,110.78,399.81,110.93,399.9,110.83Z" style="fill:#ebebeb"></path><path d="M400.4,110.19c.41-.71-5.24,1.36-10.76-.34-1.13-.35-4.22-1.95-6-2.12s-4,1.07-6.52,1.1c-.85,0-.82,7.4,1,10.81.61,1.12,3.42,3.56,5.26,3.93,4.29.87,12-1.52,13.3-2.86C397.72,119.64,396.52,117,400.4,110.19Z" style="fill:#ebebeb"></path><path d="M377.55,110.49a17.24,17.24,0,0,1,5.43-1.11,20.29,20.29,0,0,1,4.35,1.4,18.44,18.44,0,0,0,10.4.92s.06.07,0,.08a15,15,0,0,1-9.46-.29c-1.65-.55-3.6-1.61-5.36-1.67a23.51,23.51,0,0,0-5.35.85C377.41,110.7,377.39,110.54,377.55,110.49Z" style="fill:#dbdbdb"></path><path d="M379.48,119.21a30.17,30.17,0,0,0,3.37,2.13c1.41.62,3.17.3,4.65.1a81.8,81.8,0,0,0,8.24-1.9s0,0,0,0a35.5,35.5,0,0,1-9.51,2.34,7.39,7.39,0,0,1-3.31-.18,15.24,15.24,0,0,1-3.48-2.45S379.44,119.19,379.48,119.21Z" style="fill:#dbdbdb"></path><path d="M378.24,113a18.85,18.85,0,0,1,8.18.55,32.89,32.89,0,0,0,9.59.74s0,.06,0,.06a28.06,28.06,0,0,1-8.58-.38c-1.37-.28-2.72-.67-4.1-.9a16.28,16.28,0,0,0-5.07.11C378.17,113.24,378.14,113.06,378.24,113Z" style="fill:#dbdbdb"></path><path d="M378.62,115.91a13.76,13.76,0,0,0,7.93,2.55,36.49,36.49,0,0,0,8.61-1.49,0,0,0,0,1,0,.07c-5.73,1.8-11.47,2.83-16.63-1C378.43,116,378.52,115.84,378.62,115.91Z" style="fill:#dbdbdb"></path><path d="M452.89,316.44l-49.53.59c-13.39.17-11.37-10.57-8.29-21.84s7.62-28.37,19.58-28.51l12.86-.16,12.87-.15c12-.15,16.92,16.82,20.27,28S466.27,316.27,452.89,316.44Z" style="fill:#64CE82"></path><path d="M413.26,267.23a.51.51,0,0,1-.51.52.51.51,0,0,1,0-1A.51.51,0,0,1,413.26,267.23Z" style="fill:#fff"></path><path d="M421.7,267.13a.51.51,0,1,1-.52-.5A.5.5,0,0,1,421.7,267.13Z" style="fill:#fff"></path><path d="M430.14,267a.51.51,0,1,1-1,0,.52.52,0,0,1,.51-.52A.51.51,0,0,1,430.14,267Z" style="fill:#fff"></path><path d="M438.59,266.93a.52.52,0,1,1-.52-.51A.53.53,0,0,1,438.59,266.93Z" style="fill:#fff"></path><path d="M405,278.19a.51.51,0,0,1-.51.51.5.5,0,0,1-.51-.5.51.51,0,1,1,1,0Z" style="fill:#fff"></path><path d="M413.39,278.09a.51.51,0,1,1-.52-.51A.5.5,0,0,1,413.39,278.09Z" style="fill:#fff"></path><path d="M421.83,278a.5.5,0,0,1-.5.52.51.51,0,1,1,0-1A.5.5,0,0,1,421.83,278Z" style="fill:#fff"></path><path d="M430.28,277.88a.52.52,0,1,1-1,0,.52.52,0,0,1,1,0Z" style="fill:#fff"></path><path d="M438.72,277.78a.52.52,0,1,1-.52-.51A.53.53,0,0,1,438.72,277.78Z" style="fill:#fff"></path><path d="M447.16,277.68a.52.52,0,0,1-.51.52.52.52,0,1,1,.51-.52Z" style="fill:#fff"></path><path d="M409.1,272.57a.51.51,0,0,1-.5.52.51.51,0,0,1-.52-.51.51.51,0,0,1,.51-.51A.5.5,0,0,1,409.1,272.57Z" style="fill:#fff"></path><path d="M417.55,272.47a.53.53,0,0,1-.51.52.52.52,0,1,1,0-1A.53.53,0,0,1,417.55,272.47Z" style="fill:#fff"></path><path d="M426,272.37a.52.52,0,1,1-.52-.51A.53.53,0,0,1,426,272.37Z" style="fill:#fff"></path><path d="M434.43,272.27a.51.51,0,0,1-.51.51.5.5,0,0,1-.51-.5.51.51,0,0,1,.5-.52A.51.51,0,0,1,434.43,272.27Z" style="fill:#fff"></path><path d="M442.87,272.16a.51.51,0,0,1-.5.52.51.51,0,0,1,0-1A.51.51,0,0,1,442.87,272.16Z" style="fill:#fff"></path><path d="M451.24,272.32a.46.46,0,0,1-.43.26.51.51,0,0,1-.17-1C450.85,271.82,451,272.06,451.24,272.32Z" style="fill:#fff"></path><path d="M405.08,289a.52.52,0,0,1-.51.52.52.52,0,1,1,.51-.52Z" style="fill:#fff"></path><path d="M413.52,288.94a.51.51,0,0,1-1,0,.51.51,0,1,1,1,0Z" style="fill:#fff"></path><path d="M422,288.83a.5.5,0,0,1-.5.52.51.51,0,1,1,.5-.52Z" style="fill:#fff"></path><path d="M430.41,288.73a.52.52,0,1,1-1,0,.52.52,0,0,1,1,0Z" style="fill:#fff"></path><path d="M438.85,288.63a.52.52,0,0,1-.51.52.51.51,0,0,1-.51-.51.51.51,0,0,1,.5-.52A.52.52,0,0,1,438.85,288.63Z" style="fill:#fff"></path><path d="M447.29,288.53a.51.51,0,1,1-1,0,.51.51,0,1,1,1,0Z" style="fill:#fff"></path><path d="M455.73,288.43a.51.51,0,0,1-1,0,.51.51,0,1,1,1,0Z" style="fill:#fff"></path><path d="M400.79,283.53a.51.51,0,0,1-1,0,.51.51,0,1,1,1,0Z" style="fill:#fff"></path><path d="M409.23,283.42a.5.5,0,0,1-.5.52.51.51,0,1,1,0-1A.5.5,0,0,1,409.23,283.42Z" style="fill:#fff"></path><path d="M417.68,283.32a.52.52,0,0,1-1,0,.52.52,0,0,1,1,0Z" style="fill:#fff"></path><path d="M426.12,283.22a.52.52,0,0,1-.51.52.52.52,0,1,1,.51-.52Z" style="fill:#fff"></path><path d="M434.56,283.12a.52.52,0,0,1-.51.52.52.52,0,1,1,.51-.52Z" style="fill:#fff"></path><path d="M443,283a.51.51,0,0,1-1,0,.51.51,0,1,1,1,0Z" style="fill:#fff"></path><path d="M451.44,282.91a.5.5,0,0,1-.5.52.51.51,0,1,1,0-1A.5.5,0,0,1,451.44,282.91Z" style="fill:#fff"></path><path d="M396.77,300a.51.51,0,0,1-.51.52.51.51,0,0,1-.51-.51.5.5,0,0,1,.5-.51A.51.51,0,0,1,396.77,300Z" style="fill:#fff"></path><path d="M405.21,299.89a.51.51,0,1,1-1,0,.51.51,0,1,1,1,0Z" style="fill:#fff"></path><path d="M413.65,299.79a.51.51,0,0,1-.5.52.52.52,0,1,1,0-1A.51.51,0,0,1,413.65,299.79Z" style="fill:#fff"></path><path d="M422.1,299.69a.52.52,0,0,1-1,0,.52.52,0,1,1,1,0Z" style="fill:#fff"></path><path d="M430.54,299.58a.52.52,0,1,1-.52-.5A.51.51,0,0,1,430.54,299.58Z" style="fill:#fff"></path><path d="M439,299.48a.51.51,0,0,1-.51.52.51.51,0,0,1-.51-.51.5.5,0,0,1,.5-.51A.51.51,0,0,1,439,299.48Z" style="fill:#fff"></path><path d="M447.42,299.38a.51.51,0,1,1-1,0,.51.51,0,1,1,1,0Z" style="fill:#fff"></path><path d="M455.86,299.28a.51.51,0,0,1-.5.52.52.52,0,1,1,0-1A.51.51,0,0,1,455.86,299.28Z" style="fill:#fff"></path><path d="M400.92,294.38a.5.5,0,0,1-.5.51.51.51,0,0,1-.52-.5.51.51,0,0,1,.51-.52A.51.51,0,0,1,400.92,294.38Z" style="fill:#fff"></path><path d="M409.37,294.27a.52.52,0,0,1-1,0,.51.51,0,0,1,.51-.52A.52.52,0,0,1,409.37,294.27Z" style="fill:#fff"></path><path d="M417.81,294.17a.52.52,0,0,1-1,0,.52.52,0,0,1,1,0Z" style="fill:#fff"></path><path d="M426.25,294.07a.52.52,0,0,1-.51.52.51.51,0,0,1-.51-.51.51.51,0,0,1,.5-.52A.52.52,0,0,1,426.25,294.07Z" style="fill:#fff"></path><path d="M434.69,294a.51.51,0,1,1-1,0,.51.51,0,1,1,1,0Z" style="fill:#fff"></path><path d="M443.13,293.87a.5.5,0,0,1-.5.51.51.51,0,0,1-.52-.5.51.51,0,0,1,.51-.52A.51.51,0,0,1,443.13,293.87Z" style="fill:#fff"></path><path d="M451.58,293.76a.52.52,0,1,1-.52-.5A.51.51,0,0,1,451.58,293.76Z" style="fill:#fff"></path><path d="M460,293.66a.52.52,0,1,1-1,0,.52.52,0,0,1,1,0Z" style="fill:#fff"></path><path d="M396.9,310.84a.51.51,0,1,1-1,0,.51.51,0,0,1,1,0Z" style="fill:#fff"></path><path d="M405.34,310.74a.51.51,0,1,1-1,0,.51.51,0,1,1,1,0Z" style="fill:#fff"></path><path d="M413.78,310.64a.51.51,0,0,1-.5.52.52.52,0,0,1,0-1A.51.51,0,0,1,413.78,310.64Z" style="fill:#fff"></path><path d="M422.23,310.54a.52.52,0,0,1-1,0,.52.52,0,1,1,1,0Z" style="fill:#fff"></path><path d="M430.67,310.43a.51.51,0,0,1-.51.52.51.51,0,0,1,0-1A.51.51,0,0,1,430.67,310.43Z" style="fill:#fff"></path><path d="M439.11,310.33a.51.51,0,1,1-1,0,.51.51,0,0,1,1,0Z" style="fill:#fff"></path><path d="M447.55,310.23a.51.51,0,1,1-1,0,.51.51,0,0,1,1,0Z" style="fill:#fff"></path><path d="M456,310.13a.51.51,0,0,1-.5.52.53.53,0,0,1-.52-.51.52.52,0,0,1,.51-.52A.51.51,0,0,1,456,310.13Z" style="fill:#fff"></path><path d="M401.05,305.23a.51.51,0,0,1-.5.52.52.52,0,0,1,0-1A.51.51,0,0,1,401.05,305.23Z" style="fill:#fff"></path><path d="M409.5,305.13a.52.52,0,1,1-.52-.51A.52.52,0,0,1,409.5,305.13Z" style="fill:#fff"></path><path d="M417.94,305a.51.51,0,0,1-1,0,.5.5,0,0,1,.5-.52A.51.51,0,0,1,417.94,305Z" style="fill:#fff"></path><path d="M426.38,304.92a.51.51,0,1,1-1,0,.51.51,0,0,1,1,0Z" style="fill:#fff"></path><path d="M434.82,304.82a.51.51,0,1,1-1,0,.51.51,0,1,1,1,0Z" style="fill:#fff"></path><path d="M443.26,304.72a.51.51,0,0,1-.5.52.52.52,0,1,1,0-1A.51.51,0,0,1,443.26,304.72Z" style="fill:#fff"></path><path d="M451.71,304.62a.52.52,0,0,1-1,0,.52.52,0,0,1,1,0Z" style="fill:#fff"></path><path d="M460.15,304.51a.51.51,0,0,1-1,0,.5.5,0,0,1,.5-.52A.51.51,0,0,1,460.15,304.51Z" style="fill:#fff"></path><path d="M401.19,316.08a.52.52,0,1,1-1,0,.52.52,0,0,1,.51-.52A.53.53,0,0,1,401.19,316.08Z" style="fill:#fff"></path><path d="M409.63,316a.52.52,0,0,1-1,0,.52.52,0,1,1,1,0Z" style="fill:#fff"></path><path d="M418.07,315.87a.51.51,0,0,1-.51.52.51.51,0,0,1,0-1A.51.51,0,0,1,418.07,315.87Z" style="fill:#fff"></path><path d="M426.51,315.77a.51.51,0,1,1-1,0,.51.51,0,0,1,1,0Z" style="fill:#fff"></path><path d="M435,315.67a.51.51,0,1,1-1,0,.52.52,0,0,1,.51-.52A.51.51,0,0,1,435,315.67Z" style="fill:#fff"></path><path d="M443.4,315.57a.52.52,0,1,1-.52-.51A.53.53,0,0,1,443.4,315.57Z" style="fill:#fff"></path><path d="M451.84,315.47a.52.52,0,0,1-1,0,.52.52,0,0,1,1,0Z" style="fill:#fff"></path><path d="M459.66,314.87a1.91,1.91,0,0,1-.27.16A.47.47,0,0,1,459.66,314.87Z" style="fill:#fff"></path><path d="M418,272.55a4.11,4.11,0,1,1-4.15-4.06A4.1,4.1,0,0,1,418,272.55Z" style="opacity:0.1"></path><circle cx="441.27" cy="272.27" r="4.1" transform="translate(-62.29 395.86) rotate(-45.46)" style="opacity:0.1"></circle><path d="M416.68,272.56a2.78,2.78,0,1,1-2.81-2.74A2.78,2.78,0,0,1,416.68,272.56Z" style="fill:#263238"></path><path d="M444.05,272.23a2.78,2.78,0,1,1-2.81-2.74A2.78,2.78,0,0,1,444.05,272.23Z" style="fill:#263238"></path><path d="M441.28,272.87a1.58,1.58,0,0,1-1.59-1.55,76.83,76.83,0,0,0-2.51-14.72c-1.65-5.85-4.64-12.82-9.57-12.76-9.09.11-12.21,23.09-12.16,27.77a1.57,1.57,0,1,1-3.13,0c0-.3,1.53-30.77,15.25-30.94,13.31-.16,15.25,30.27,15.26,30.57A1.57,1.57,0,0,1,441.28,272.87Z" style="fill:#64CE82"></path><path d="M410.76,134.06c18.44,17.77,32.84,46.18,33.71,52.1,1,6.52.09,21-.29,39.81-.08,3.56-27.79,0-27.28-3.76.84-6.29,2.89-31.23,2.87-34.92,0-2.44-10.09-31.22-15.73-43.81C399.34,133,402.66,126.26,410.76,134.06Z" style="fill: rgb(211, 118, 106);"></path><path d="M415.21,259.67a4.26,4.26,0,0,0,4.74-1,6.3,6.3,0,0,0,3.44,2.56c2.51.64,4.61-3,4.61-3a7.73,7.73,0,0,0,4.05,2.13c2.47.37,5.12-3,5.12-3a6.77,6.77,0,0,0,4.74-.38c3.89-2,4.45-8.66,4.85-12.89s-2.44-16.59-2.74-19l-27.12-2.78s-7.18,18.46-6.94,23.5C410.16,250,412.2,258.28,415.21,259.67Z" style="fill: rgb(211, 118, 106);"></path><path d="M419.54,258.41c-1.3-4.47-1.21-9.07-1.38-13.67a.08.08,0,0,1,.16,0c.12,4.57,1.14,9.07,1.43,13.63A.11.11,0,0,1,419.54,258.41Z" style="fill:#263238"></path><path d="M427.66,258.05a12,12,0,0,1-.18-3.16c0-1.13,0-2.25.1-3.37.11-2.25.26-4.49.48-6.73,0-.09.17-.1.16,0q-.15,3.36-.17,6.72c0,1.12,0,2.24,0,3.36A14.61,14.61,0,0,1,428,258,.16.16,0,0,1,427.66,258.05Z" style="fill:#263238"></path><path d="M437.17,257.17a8.52,8.52,0,0,1,0-2.85c.07-1,.13-2,.19-3.07.11-2,.22-4.09.27-6.14a.08.08,0,0,1,.16,0c0,2.08,0,4.16-.09,6.24,0,1-.06,2-.1,3.07a8,8,0,0,1-.32,2.76A.06.06,0,0,1,437.17,257.17Z" style="fill:#263238"></path><path d="M415.78,221l30.84,3.32s-.58-32.74-1.72-38.6-17.61-38-35.91-53.55c-5.95-5.06-9.91-.07-6.71,9.35s16.39,43.67,16.39,45.67S415.78,221,415.78,221Z" style="fill:#64CE82"></path><path d="M419,188c-.21-3.77-1.8-7.31-3.08-10.81s-2.67-7.3-4.09-10.92c-1.64-4.16-3.16-8.37-4.85-12.51a0,0,0,1,0-.09,0c.73,2.32,1.5,4.63,2.27,6.94l-.41-.68a23.77,23.77,0,0,0-1.77-2.56,0,0,0,0,0-.06,0,24.23,24.23,0,0,0,1.51,2.73c.28.44.55.88.85,1.3.1.16.21.31.32.47q2.34,6.93,4.81,13.81l2,5.55a25.28,25.28,0,0,1,1.4,5.18,33.1,33.1,0,0,1,0,5.89c-.11,1.9-.24,3.79-.37,5.68-.3,4.35-.56,8.71-.94,13,0,.09.14.1.16,0,.64-3.86,1.25-7.71,1.65-11.61q.31-3,.53-5.93A44.56,44.56,0,0,0,419,188Z" style="fill:#263238"></path><path d="M445,217.65a50.44,50.44,0,0,0-6.71-1.09c-2.2-.3-4.4-.57-6.6-.83s-4.31-.48-6.47-.68c-1.1-.11-2.2-.2-3.3-.28l-1.78-.15c-.66-.05-1.36,0-2-.12a.08.08,0,1,0,0,.15c.67,0,1.33.24,2,.34l1.63.26c1.14.18,2.27.35,3.41.51q3.28.48,6.59.86c2.15.24,4.31.48,6.47.7a51.42,51.42,0,0,0,6.78.5A.09.09,0,0,0,445,217.65Z" style="fill:#263238"></path></g><g id="freepik--character-1--inject-68"><path d="M98,375.78s0,43.06,0,43.09c0,8.24.07,15.46.47,19.19a.13.13,0,0,0,0,.06,5.75,5.75,0,0,0,.6,2.55s0,0,0,.05c2.45,1.67,68.25,3.92,70.57,3.23s.53-7.37-2-9.49-27.3-14.26-27.3-14.26l-.41-43Z" style="fill:#ad6359"></path><path d="M98,410v8.84c0,8.24.07,15.46.47,19.19a.13.13,0,0,0,0,.06,11.06,11.06,0,0,0,.6,2.55s0,0,0,.05c2.45,1.67,68.25,3.92,70.57,3.23s.53-7.37-2-9.49-27.3-14.26-27.3-14.26l.12-9Z" style="fill:#c7c7c7"></path><path d="M169.73,444c-2.32.7-68.12-1.56-70.57-3.23-.94-.63-1.17-10.23-1.12-21.85v-.36l42.46,1,0,.72s24.8,12.12,27.3,14.25S172.06,443.26,169.73,444Z" style="fill:#64CE82"></path><path d="M169.07,441.37c-11.08-.65-55.84-2.23-66.84-2-.09,0-.09.06,0,.07,11,.88,55.74,2.1,66.84,2.15C169.3,441.56,169.31,441.39,169.07,441.37Z" style="fill:#263238"></path><path d="M144,420.46c-4.34-1-9.7-.48-13.14,2.52-.14.11,0,.3.17.26A61.63,61.63,0,0,1,144,421,.28.28,0,0,0,144,420.46Z" style="fill:#263238"></path><path d="M147.12,422.46c-4.34-1-9.7-.47-13.14,2.52-.13.12,0,.31.18.27A61.42,61.42,0,0,1,147.09,423,.28.28,0,0,0,147.12,422.46Z" style="fill:#263238"></path><path d="M150.21,424.47c-4.34-1-9.7-.48-13.14,2.52-.14.12,0,.3.17.26A61.63,61.63,0,0,1,150.17,425,.28.28,0,0,0,150.21,424.47Z" style="fill:#263238"></path><path d="M116.74,442.39c-9.56-.54-16.8-1.14-17.58-1.67-.94-.63-1.17-10.23-1.12-21.85,0-.12,0-.24,0-.36l6,.14Z" style="fill:#263238"></path><polygon points="94.26 216.11 94.3 218.96 95.91 344.82 95.92 345.3 96.87 420.69 142.93 419.77 134.04 216.26 133.92 213.54 133.47 189.93 94.57 189.93 94.26 216.11" style="fill:#a6a6a6"></polygon><path d="M141,412.08c-7.19-.06-5.12-.14-12.31-.12-3.52,0-26.65.08-29.93.67a.07.07,0,0,0,0,.14c3.3.51,26.42,0,29.93,0,7.19-.16,5.13-.19,12.32-.43A.11.11,0,0,0,141,412.08Z" style="fill:#263238"></path><path d="M104.68,386.52q-.14-10.33-.33-20.66-.39-20.67-.77-41.33-.75-41.11-1.32-82.23c-.23-15.46-.23-30.93-.62-46.38,0,0-.07,0-.07,0-.25,13.77-.1,27.56-.07,41.34s.08,27.55.21,41.33c.27,27.42.65,54.83,1.3,82.24.18,7.73.37,15.46.63,23.18s.44,15.47,1,23.18a.09.09,0,1,0,.18,0C104.94,400.3,104.77,393.41,104.68,386.52Z" style="fill:#263238"></path><polygon points="94.26 216.11 95.9 344.82 126.77 189.93 94.57 189.93 94.26 216.11" style="fill:#263238"></polygon><path d="M46.37,373.45s-5.8,42.67-5.8,42.7c-1.16,8.15-2,15.32-2.12,19.07a.06.06,0,0,0,0,.06,5.88,5.88,0,0,0,.24,2.61l0,.06c2.2,2,67.1,13.09,69.49,12.72s1.51-7.23-.66-9.67-25.13-17.81-25.13-17.81l5.39-42.7Z" style="fill:#ad6359"></path><path d="M41.76,407.39s-1.19,8.73-1.19,8.76c-1.16,8.15-2,15.32-2.12,19.07a.06.06,0,0,0,0,.06,11.74,11.74,0,0,0,.24,2.61l0,.06c2.2,2,67.1,13.09,69.49,12.72s1.51-7.23-.66-9.67-25.13-17.81-25.13-17.81l1.33-8.87Z" style="fill:#c7c7c7"></path><path d="M108.22,450.67c-2.4.38-67.29-10.73-69.49-12.73-.85-.74.22-10.29,1.84-21.79,0-.12,0-.24,0-.36l41.95,6.7-.14.71s22.94,15.36,25.13,17.81S110.62,450.3,108.22,450.67Z" style="fill:#64CE82"></path><path d="M107.92,448c-10.9-2.14-55-9.75-66-11-.09,0-.1.05,0,.07,10.75,2.36,55,9.61,66,11.15C108.12,448.24,108.15,448.07,107.92,448Z" style="fill:#263238"></path><path d="M85.93,423.92c-4.17-1.54-9.55-1.78-13.36.73-.15.1,0,.3.14.28a61.12,61.12,0,0,1,13.11-.46A.28.28,0,0,0,85.93,423.92Z" style="fill:#263238"></path><path d="M88.71,426.33c-4.16-1.54-9.54-1.78-13.35.72-.15.1,0,.31.13.29a61.8,61.8,0,0,1,13.11-.47A.28.28,0,0,0,88.71,426.33Z" style="fill:#263238"></path><path d="M91.5,428.73c-4.17-1.54-9.54-1.78-13.36.73-.15.09,0,.3.14.28a61.8,61.8,0,0,1,13.11-.47A.28.28,0,0,0,91.5,428.73Z" style="fill:#263238"></path><path d="M129.51,189.89a.16.16,0,0,1,0,0c-.17.8-2.89,13.42-5.71,24.26-2.05,7.92-4.16,14.88-5.37,15.6-1.37.81-8,3.77-10.29,4.7L97.91,332.24,84.08,422.82l-45.22-7L71,217.62l5.24-27.73Z" style="fill:#a6a6a6"></path><path d="M83.81,413.76c-7.1-1.14-5-.91-12.16-2-3.48-.52-26.36-3.91-29.69-3.83-.07,0-.09.13,0,.15,3.18,1,26.11,4,29.6,4.44,7.14.92,5.1.58,12.24,1.42C83.91,414,83.94,413.79,83.81,413.76Z" style="fill:#263238"></path><path d="M74.94,228.09c1.2-.31,2.49-.41,3.71-.6,1-.16,2-.33,3-.55a12.67,12.67,0,0,0,5.22-2.2c1.7-1.32,2.57-3.33,3.39-5.25q.73-1.73,1.5-3.42l.75-1.65a18.75,18.75,0,0,0,.93-2c0-.09.19,0,.15.05a13,13,0,0,0-.42,1.42c-.16.55-.32,1.11-.49,1.66-.31,1-.61,2-.93,3a23.44,23.44,0,0,1-2.09,5.17c-1.82,2.89-5.06,4.05-8.3,4.46-.93.12-1.87.18-2.8.24a20,20,0,0,1-3.55,0A.16.16,0,0,1,74.94,228.09Z" style="fill:#263238"></path><path d="M75.35,235c-1.13,5.47-2,11-3,16.49s-1.86,10.79-2.78,16.19Q66.79,284,64,300.36q-5.57,32.75-10.94,65.52c-2,12.25-4,24.52-5.82,36.8,0,.12.16.17.18.05,4.06-21.76,7.68-43.59,11.38-65.41s7.29-43.68,10.88-65.52q1.5-9.1,3-18.22c1-6.18,2.07-12.37,2.88-18.58C75.58,234.87,75.38,234.81,75.35,235Z" style="fill:#263238"></path><path d="M122,228a87.41,87.41,0,0,0-13.77,6.41.16.16,0,0,0,.13.29c4.63-2,9.36-3.9,13.89-6.15A.3.3,0,0,0,122,228Z" style="fill:#263238"></path><path d="M123.37,196.25c0-.16-.29-.2-.29,0a152.13,152.13,0,0,1-.78,15.5c-.21,2.39-2.13,15.6-6.28,14.63-.69-.16-1-.84-1.15-1.89a16,16,0,0,1,.55-4c.46-2.77.82-5.54,1.06-8.33a74.91,74.91,0,0,0-.17-15.63.13.13,0,0,0-.26,0A143.87,143.87,0,0,1,114.78,218c-.51,3.44-2.24,8.61,1.35,9.14s6-8.13,6.47-10.49A78.62,78.62,0,0,0,123.37,196.25Z" style="fill:#263238"></path><path d="M116.13,226.71a23.87,23.87,0,0,0-.93,2.74,6.24,6.24,0,0,0-.39,2.25.16.16,0,0,0,.29.06,7.8,7.8,0,0,0,1-2.19c.32-.85.65-1.69.94-2.54A.46.46,0,0,0,116.13,226.71Z" style="fill:#263238"></path><path d="M110.68,133.45c21,10.86,42.84,13.55,47.71,11.42,7.54-3.29,23.46-26.44,28.05-36.08,1.5-3.16-19.58-14.88-22.94-13.24s-17.59,27.75-19.44,29.1c-1,.72-15.36-.32-28.73-.31C102.48,124.36,105.61,130.83,110.68,133.45Z" style="fill:#ad6359"></path><path d="M184.72,111.56c1.71-2.43,8.57-14.29,9.74-18s3.76-14.69,1-15.88-3.77,2-3.77,2,.36-4.8-2.53-5.74-4.31,4-4.31,4,0-5-2.94-5.69-3.54,4.49-3.54,4.49.22-4.54-2.46-4.12c-3.23.51-2.7,8.91-4.3,12.93-.36.91-8.68,18-8.68,18Z" style="fill:#ad6359"></path><path d="M178.42,76.24c.38,6.18-.52,9-3.46,14.3-.05.11.09.22.16.11,3.35-5,5-8.28,3.6-14.44C178.65,75.91,178.4,76,178.42,76.24Z" style="fill:#263238"></path><path d="M184.8,77.4c-.17,6.46-1.12,9.47-3.78,15.3,0,.08.1.16.14.08,3.09-5.5,4.65-8.84,4-15.32C185.09,77.17,184.81,77.11,184.8,77.4Z" style="fill:#263238"></path><path d="M191.53,79.92c-.61,6.24-1.51,9.59-4.82,14.91a.12.12,0,0,0,.19.14c3.9-5.11,5.06-9.28,4.82-15C191.7,79.56,191.57,79.52,191.53,79.92Z" style="fill:#263238"></path><path d="M161,106.85s-1.91-7.53-2-11,4.29-16.64,7.18-15.86c3.74,1,2.7,9.11,1.67,13,0,0,8.65,2.35,9.16,8.32S161,106.85,161,106.85Z" style="fill:#ad6359"></path><path d="M167.1,80.59c2.74,3.39,1.06,8.41.34,12.27a.37.37,0,0,0,.4.44c3.56,1.22,8.22,4,9.31,7.81a.09.09,0,0,0,.18,0c-.61-4.25-5-7.34-9-8.44.8-3.94,2.26-9.06-1.24-12.07A0,0,0,0,0,167.1,80.59Z" style="fill:#263238"></path><path d="M157.5,101.36l27.78,15.4S167.64,144.07,158.41,146s-33.55-3.87-46-10.22c-14.55-7.4-6.53-13.12,2.7-12.47,6.28.44,27.48,1.42,28.31.54S157.5,101.36,157.5,101.36Z" style="fill:#263238"></path><path d="M178.55,121.23c-.87-.7-9.41-5.8-11.29-6.86s-9.52-5.51-11.55-6.45a.08.08,0,0,0-.08.14c1.82,1.3,9.51,5.79,11.41,6.92s10.44,6,11.45,6.38C178.58,121.4,178.61,121.28,178.55,121.23Z" style="fill:#37474f"></path><path d="M145.94,145.7c-11-1.53-25-5.6-33.58-9.94-7.5-3.81-9-7.18-7.43-9.46Z" style="fill:#37474f"></path><path d="M67.54,210.62c.16.18,69.34.39,70-.32.88-1-14.74-76-21.84-85.21-1.52-2-6.53-2.53-10.79-2a19,19,0,0,0-3.28.67l-.11,0A7.84,7.84,0,0,0,99.08,125c-11.85,9.46-21.82,42.53-24.15,52.46C71.07,193.79,67,210,67.54,210.62Z" style="fill:#ebebeb"></path><path d="M100.75,123.92s4.2,30.84,5.18,38.82-.46,50.12-.46,50.12L62,216.08s9.38-27.9,9.49-29.67c0,0,7.55-33.57,15.12-47.39A42.07,42.07,0,0,1,100.75,123.92Z" style="fill:#263238"></path><path d="M95.7,127.73l-14,86.89L62,216.08s9.38-27.9,9.49-29.67c0,0,7.55-33.57,15.12-47.39A42.53,42.53,0,0,1,95.7,127.73Z" style="fill:#37474f"></path><path d="M116.13,124.73s4.61,31.08,5.11,33.66,7.48,53.27,7.48,53.27l10.87.34-5.67-23.18S121.3,131.35,116.13,124.73Z" style="fill:#263238"></path><path d="M91,132.64c-19.3,17.5-31.55,42.52-32.38,47.56-2,12.21-4.93,32.81-4.5,42.2.16,3.48,26.93.06,26.87-3.66-.17-11.64,1.39-37.24,1.46-37.68.47-3.14,6.21-17.21,12-32.46S99.14,125.27,91,132.64Z" style="fill:#ad6359"></path><path d="M81,217.69s.89,10.6,1.14,17.56c.14,3.88-.21,10.56-1.41,13.46-1.8,4.34-12.08,21.34-16.26,18.93-3.78-2.17.61-7.33.61-7.33s-4.27,6.09-7.35,2.77,3.25-9.5,3.25-9.5-4.07,6.78-7,2.93c-2.56-3.34,4-11.24,4-11.24s-3.49,7.59-6.46,4.42c-3.27-3.5,5.07-16.57,5.07-16.57-3.45-9.46-2.62-14.58-2-21.18C54.62,210.72,81,217.69,81,217.69Z" style="fill:#ad6359"></path><path d="M59.51,255.47l1.42-1.53a35,35,0,0,0,2.66-3.07c.79-1.07,1.53-2.16,2.24-3.28S67.2,245.15,68,244a.08.08,0,1,0-.14-.08,35.94,35.94,0,0,1-2.45,3.32c-.82,1.08-1.66,2.14-2.5,3.2s-1.57,2.12-2.36,3.18c-.39.53-.81,1-1.22,1.55a10.36,10.36,0,0,0-1.16,1.48c0,.05,0,.1.09.07A8.75,8.75,0,0,0,59.51,255.47Z" style="fill:#263238"></path><path d="M64.14,261.56A53.63,53.63,0,0,0,69.21,256a38.4,38.4,0,0,0,4-6.42c0-.08-.08-.16-.14-.09-1.54,2-3,4-4.57,6-.74,1-4.24,5.37-4.55,5.88C63.86,261.51,64,261.63,64.14,261.56Z" style="fill:#263238"></path><path d="M55,249.86a55.09,55.09,0,0,0,4.67-5.34,49.05,49.05,0,0,0,3.39-6.42c0-.08-.08-.16-.13-.08-1.29,2-2.54,4.1-3.93,6.08-.67,1-3.59,4.66-4.15,5.63A.1.1,0,0,0,55,249.86Z" style="fill:#263238"></path><path d="M82.31,218.86l-29.23,1.58s2.16-32,4.47-40.89S79.68,141,91.37,130.29c11-10.11,11-1.7,6.83,10.15S83.71,180.94,83.36,183,82.31,218.86,82.31,218.86Z" style="fill:#263238"></path><path d="M81,213c-1.12-.1-11,.32-13.21.46s-11,.62-13.19,1a.08.08,0,0,0,0,.15c2.23.1,11.13-.37,13.33-.46s12-.73,13.08-.95C81.11,213.09,81.07,213,81,213Z" style="fill:#37474f"></path><path d="M113.1,132c-3.23.78-10-3-12.32-7.62-.16-.31.43-3.57,1-7.56.31-2.43.6-5.13.68-7.62,0-.51,15.48,4.31,15.48,4.31a39.78,39.78,0,0,0-1.83,9.51,5.55,5.55,0,0,0,.08,1s0,.1,0,.17C116.41,126.18,116.56,131.18,113.1,132Z" style="fill:#ad6359"></path><path d="M116.14,124.06s0,.11,0,.17a10.45,10.45,0,0,1-1.6,0c-9.18-.51-11.22-12.09-11.59-15,2.76.49,14.93,4.29,14.93,4.29a39.78,39.78,0,0,0-1.83,9.51A5.55,5.55,0,0,0,116.14,124.06Z" style="fill:#263238"></path><path d="M107.8,119h0" style="fill:none;stroke:#f4a69d;stroke-linecap:round;stroke-linejoin:round;stroke-width:0px"></path><path d="M100.16,89.75c-1.7,5.53,1.2,21.53,5.13,25.11,5.7,5.18,15,5.69,19.45-1.17,4.27-6.65.13-27.43-4.26-30.68C114,78.22,102.67,81.57,100.16,89.75Z" style="fill:#ad6359"></path><path d="M115.75,99.35s-.07.06-.07.11c.23,1.07.3,2.34-.61,2.87,0,0,0,.07,0,.06C116.25,102,116.14,100.33,115.75,99.35Z" style="fill:#263238"></path><path d="M114.59,98.39c-1.76.17-1.28,3.68.35,3.52S116.06,98.25,114.59,98.39Z" style="fill:#263238"></path><path d="M122.06,98.67s.09,0,.09.08c.12,1.09.43,2.32,1.46,2.55,0,0,0,.06,0,.06C122.39,101.36,122,99.72,122.06,98.67Z" style="fill:#263238"></path><path d="M122.87,97.41c1.73-.37,2.34,3.11.74,3.45S121.42,97.72,122.87,97.41Z" style="fill:#263238"></path><path d="M113,97c.46-.19.85-.44,1.29-.67a2.37,2.37,0,0,0,1.19-.92.75.75,0,0,0-.24-.88,1.84,1.84,0,0,0-1.88.06A2.73,2.73,0,0,0,112,96,.8.8,0,0,0,113,97Z" style="fill:#263238"></path><path d="M124,95.46a13.81,13.81,0,0,1-1.44-.18,2.35,2.35,0,0,1-1.44-.45.74.74,0,0,1-.08-.91,1.85,1.85,0,0,1,1.78-.59,2.72,2.72,0,0,1,1.79.8A.8.8,0,0,1,124,95.46Z" style="fill:#263238"></path><path d="M116.12,109.56c.29.22.6.53,1,.51a2.94,2.94,0,0,0,1.13-.43,0,0,0,0,1,0,0,1.47,1.47,0,0,1-1.3.77,1.15,1.15,0,0,1-1-.84C116,109.56,116.07,109.53,116.12,109.56Z" style="fill:#263238"></path><path d="M116.82,106.15a3.7,3.7,0,0,0,2.69,1.31,4.58,4.58,0,0,0,1.33-.12.92.92,0,0,0,.25-.06l.24-.07a.27.27,0,0,0,.18-.27h0s0-.07,0-.11h0v-.09c-.09-.84-.35-2.1-.35-2.1.33.11,2,.6,1.9.16a56.24,56.24,0,0,0-3-11,.1.1,0,0,0-.19,0c.54,3.47,1.69,6.83,2.29,10.3a6.48,6.48,0,0,0-1.81-.29c-.12,0,.53,2.43.54,2.81,0,0,0,0,0,0a5.18,5.18,0,0,1-4-.67C116.82,106,116.74,106.08,116.82,106.15Z" style="fill:#263238"></path><path d="M120.29,107a4.32,4.32,0,0,1-1.57,1.59,1.9,1.9,0,0,1-1.18.24c-.9-.11-1-.9-1-1.6a5.18,5.18,0,0,1,.25-1.1A5.71,5.71,0,0,0,120.29,107Z" style="fill:#263238"></path><path d="M118.72,108.58a1.9,1.9,0,0,1-1.18.24c-.9-.11-1-.9-1-1.6A2,2,0,0,1,118.72,108.58Z" style="fill: rgb(173, 99, 89);"></path><path d="M123.51,88c-.78-1.29-1.65-2.59-2.52-2.75s-1.14,1.93-3,2.31c-2.53.52-4.08-1.65-7.67-1.42-5.16.33-6.84,4.9-6,12.18.76,6.5-3.07,7.63-3.07,7.63s-4.3-14-.9-19.25,12.35-8.61,19.17-4.92C122,83.13,123.51,88,123.51,88Z" style="fill:#263238"></path><path d="M104.19,103s-3.72-5.11-6-3.77.54,8.78,3.31,9.75a2.8,2.8,0,0,0,3.73-1.57Z" style="fill:#ad6359"></path><path d="M99,101.31s0,.06,0,.08c1.95.74,3,2.52,3.74,4.36a1.55,1.55,0,0,0-2.32-.38c-.05,0,0,.11,0,.1a1.72,1.72,0,0,1,1.91.57,7.87,7.87,0,0,1,.94,1.52c.09.17.4.07.33-.13v0C103.65,104.92,101.67,101.51,99,101.31Z" style="fill:#263238"></path><path d="M108.46,114.27c-2.74-.92-5.52-2-7.46-4.35a13.88,13.88,0,0,1-3.1-5.72,10.44,10.44,0,0,0,1.24,2.36,7.57,7.57,0,0,0,1.93,1.94s0,0,0,0a14.74,14.74,0,0,0,7.45,5.3C108.81,113.9,108.73,114.36,108.46,114.27Z" style="fill:#ebebeb"></path><path d="M104.73,104.44c-.52-.54-2.27-3.41-3.68-4.41v0c-.22-.18-.45-.35-.68-.51A3,3,0,0,0,99.09,99a2,2,0,0,1,1.14-.21c2,.19,3.78,4.07,4.66,5.51C105,104.39,104.82,104.53,104.73,104.44Z" style="fill:#ebebeb"></path><path d="M104.23,103.8c-.41-.72,5.24,1.36,10.76-.34,1.13-.35,4.22-2,6-2.13s4,1.08,6.52,1.11c.85,0,.82,7.39-1,10.8-.61,1.12-3.42,3.57-5.25,3.93-4.3.87-12-1.51-13.31-2.85C106.91,113.24,108.11,110.59,104.23,103.8Z" style="fill:#ebebeb"></path><path d="M127.08,104.09a17.5,17.5,0,0,0-5.43-1.1,19.51,19.51,0,0,0-4.34,1.4,18.57,18.57,0,0,1-10.41.92c-.05,0-.06.06,0,.08a15.15,15.15,0,0,0,9.46-.29c1.65-.56,3.61-1.62,5.36-1.68a24.07,24.07,0,0,1,5.35.85C127.22,104.3,127.24,104.15,127.08,104.09Z" style="fill:#dbdbdb"></path><path d="M125.15,112.82a33.38,33.38,0,0,1-3.37,2.13c-1.41.61-3.17.3-4.64.1a84.2,84.2,0,0,1-8.25-1.91s0,0,0,0a35.12,35.12,0,0,0,9.51,2.34,7.25,7.25,0,0,0,3.31-.17,15.29,15.29,0,0,0,3.48-2.46S125.19,112.8,125.15,112.82Z" style="fill:#dbdbdb"></path><path d="M126.39,106.65a19,19,0,0,0-8.18.54,32.53,32.53,0,0,1-9.59.75s0,0,0,0a27.45,27.45,0,0,0,8.58-.38c1.37-.27,2.72-.66,4.1-.89a16,16,0,0,1,5.07.11A.09.09,0,0,0,126.39,106.65Z" style="fill:#dbdbdb"></path><path d="M126,109.51a13.75,13.75,0,0,1-7.93,2.56,37,37,0,0,1-8.61-1.49s0,0,0,.07c5.73,1.79,11.47,2.82,16.63-1C126.2,109.6,126.11,109.44,126,109.51Z" style="fill:#dbdbdb"></path></g><g id="freepik--Distance--inject-68"><rect x="221.83" y="186.28" width="2.87" height="7.21" style="fill:#64CE82"></rect><rect x="217.09" y="186.28" width="2.47" height="7.21" style="fill:#64CE82"></rect><rect x="160.6" y="186.28" width="55.35" height="7.21" style="fill:#64CE82"></rect><polygon points="160.6 182.18 160.6 197.6 152.55 189.89 160.6 182.18" style="fill:#64CE82"></polygon><rect x="275.3" y="186.28" width="2.87" height="7.21" style="fill:#64CE82"></rect><rect x="280.44" y="186.28" width="2.47" height="7.21" style="fill:#64CE82"></rect><rect x="284.05" y="186.28" width="55.35" height="7.21" style="fill:#64CE82"></rect><polygon points="339.4 197.6 339.4 182.18 347.45 189.89 339.4 197.6" style="fill:#64CE82"></polygon><path d="M238.34,191a2.48,2.48,0,0,1-5,.26v0c0-.2,0-.39,0-.59a6,6,0,0,1,.36-2.1,3.54,3.54,0,0,1,1.32-1.75,3,3,0,0,1,1.53-.48.58.58,0,0,1,.6.55.6.6,0,0,1-.56.59,1.82,1.82,0,0,0-1,.29,2,2,0,0,0-.64.71,2.29,2.29,0,0,0-.14.27,2.51,2.51,0,0,1,1-.21A2.48,2.48,0,0,1,238.34,191Zm-1.13,0a1.36,1.36,0,0,0-1.35-1.35,1.34,1.34,0,0,0-1.34,1.35,1.33,1.33,0,0,0,1.34,1.34A1.34,1.34,0,0,0,237.21,191Z" style="fill:#64CE82"></path><path d="M243.4,192.93v-6a.57.57,0,0,1,.57-.57h3.34a.57.57,0,0,1,0,1.14h-2.77v1.87h2.38a.57.57,0,1,1,0,1.14h-2.38v2.45a.58.58,0,0,1-.57.57A.57.57,0,0,1,243.4,192.93Z" style="fill:#64CE82"></path><path d="M249.59,192.93v-6a.56.56,0,0,1,.57-.57h3.34a.57.57,0,0,1,.56.57.57.57,0,0,1-.56.57h-2.77v1.87h2.38a.57.57,0,1,1,0,1.14h-2.38v1.88h2.77a.57.57,0,0,1,0,1.14h-3.34A.57.57,0,0,1,249.59,192.93Z" style="fill:#64CE82"></path><path d="M255.66,192.93v-6a.56.56,0,0,1,.56-.57h3.35a.57.57,0,0,1,.56.57.58.58,0,0,1-.56.57h-2.78v1.87h2.39a.57.57,0,0,1,0,1.14h-2.39v1.88h2.78a.57.57,0,0,1,0,1.14h-3.35A.56.56,0,0,1,255.66,192.93Z" style="fill:#64CE82"></path><path d="M266.1,187.47h-1.62v5.46a.57.57,0,1,1-1.13,0v-5.46h-1.62a.57.57,0,0,1-.56-.57.56.56,0,0,1,.56-.57h4.37a.57.57,0,0,1,.57.57A.58.58,0,0,1,266.1,187.47Z" style="fill:#64CE82"></path></g></svg>